<?xml version="1.0" encoding="utf-8"?>
<!-- Svg Vector Icons : http://www.onlinewebfonts.com/icon -->
<!DOCTYPE svg PUBLIC "-//W3C//DTD SVG 1.1//EN" "http://www.w3.org/Graphics/SVG/1.1/DTD/svg11.dtd">
<svg version="1.1" xmlns="http://www.w3.org/2000/svg" xmlns:xlink="http://www.w3.org/1999/xlink" x="0px" y="0px" viewBox="0 0 1000 1000" enable-background="new 0 0 1000 1000" xml:space="preserve">
<metadata> Svg Vector Icons : http://www.onlinewebfonts.com/icon </metadata>
<g><path d="M165.8,525.6v309.5c0,22.6,18.3,40.9,40.9,40.9h378.4c-0.4-0.4-0.7-0.7-1.1-1.1c-20-20.4-36.2-43.5-47.1-66.9c-29-62.4-19-138.6,36.9-183.3c27.6-22,62.2-34.2,97.3-34.2c13.8,0,27.4,1.9,40.4,5.7c19,5.5,36.6,15,52.3,27.9c15.7-13,33.3-22.5,52.3-27.9c5.9-1.7,12.1-3.1,18.2-4v-66.8L500,266.1L165.8,525.6z"/><path d="M68.6,504.3c9,11.6,22.5,17.7,36.1,17.7c9.8,0,19.6-3.2,27.9-9.6L500,227.2l367.3,285.2c8.3,6.4,18.2,9.6,27.9,9.6c13.6,0,27.1-6,36.1-17.7l49-63.1c15.5-20,11.9-48.6-8.1-64.1L528,32.3c-8.2-6.3-18.1-9.6-28-9.6c-9.9,0-19.7,3.2-28,9.6L27.7,377.2c-20,15.5-23.5,44.1-8.1,64.1L68.6,504.3z"/><path d="M921.7,853.4c32.9-33.7,58.6-79.3,54.8-127.8c-0.1-1.8-0.3-3.6-0.5-5.4c-7.5-58.6-62.9-98.9-119.5-98.9c-7.5,0-14.8,0.7-22.2,2.2c-3.3,0.6-6.4,1.4-9.6,2.4c-24.6,7.2-45.3,22.5-60.8,42.4c-15.6-19.9-36.2-35.3-60.8-42.4c-10.4-3.1-21.2-4.5-31.9-4.5c-49.4,0-98.4,31.5-114.7,78.9c-19,55.3,11.3,114.2,49.5,153.2c7.9,8,16.1,15.4,24.7,22.6c32.2,26.8,68.5,48.7,101.4,74.5c10.6,8.3,22.8,16.9,31.8,26.9c9-10,21.2-18.6,31.8-26.9C837.4,917.9,884.3,891.6,921.7,853.4z"/></g>
</svg>